<?xml version="1.0" encoding="UTF-8" standalone="no"?>
<!DOCTYPE svg PUBLIC "-//W3C//DTD SVG 1.1//EN" "http://www.w3.org/Graphics/SVG/1.1/DTD/svg11.dtd">
<svg width="100%" height="100%" viewBox="0 0 1145 1169" version="1.1" xmlns="http://www.w3.org/2000/svg" xmlns:xlink="http://www.w3.org/1999/xlink" xml:space="preserve" xmlns:serif="http://www.serif.com/" style="fill-rule:evenodd;clip-rule:evenodd;stroke-linecap:round;stroke-linejoin:round;stroke-miterlimit:1.5;">
    <g transform="matrix(1,0,0,1,-12.973358,-16)">
        <g transform="matrix(-1,0,0,1,3197.177837,-1239.987223)">
            <path id="head" d="M2273.236,1915.124C2266.908,1966.201 2276.828,2078.814 2280.144,2102.446C2347.468,2582.346 2912.435,2420.039 3031.319,2233.483C3035.344,2227.166 3141.679,2158.575 3155.771,2055.246C3173.363,1926.263 3229.627,1783.282 3048.332,1806.229C3020.965,1809.692 3022.374,1769.3 2608.372,1691.689C2354.135,1644.029 2305.206,1657.073 2273.236,1915.124Z" style="fill:rgb(249,221,177);"/>
            <clipPath id="_clip1">
                <path id="head1" serif:id="head" d="M2273.236,1915.124C2266.908,1966.201 2276.828,2078.814 2280.144,2102.446C2347.468,2582.346 2912.435,2420.039 3031.319,2233.483C3035.344,2227.166 3141.679,2158.575 3155.771,2055.246C3173.363,1926.263 3229.627,1783.282 3048.332,1806.229C3020.965,1809.692 3022.374,1769.3 2608.372,1691.689C2354.135,1644.029 2305.206,1657.073 2273.236,1915.124Z"/>
            </clipPath>
            <g clip-path="url(#_clip1)">
                <path id="l_eye" d="M2387.226,2033.589C2393.578,1987.346 2340.335,1989.55 2346.014,2030.223C2348.991,2051.544 2359.823,2059.913 2367.177,2059.786C2385.418,2059.47 2386.663,2037.689 2387.226,2033.589Z" style="stroke:black;stroke-width:12.5px;"/>
                <g>
                    <path id="r_eye" d="M2724.562,2067.933C2733.349,2062.367 2731.263,1995.288 2704.45,2011.711C2695.053,2017.467 2689.843,2022.338 2692.519,2048.974C2695.102,2074.681 2717.066,2072.681 2724.562,2067.933Z" style="stroke:black;stroke-width:12.5px;"/>
                </g>
                <path id="nose" d="M2468.348,2148.968C2451.922,2136.022 2461.509,2051.499 2462.465,2043.068C2471.742,1961.269 2547.042,1980.059 2553.196,2022.598C2553.268,2023.097 2553.201,2135.302 2552.29,2136.879C2548.789,2142.937 2529.233,2176.775 2465.638,2148.735" style="fill:rgb(208,125,126);stroke:black;stroke-width:12.5px;"/>
                <g transform="matrix(-1,0,0,1,3200.177837,1255.987223)">
                    <path d="M489.42,953.306C490.799,1002.035 558.599,1033.943 642.126,1033.407" style="fill:none;stroke:black;stroke-width:12.51px;"/>
                </g>
                <path id="hair" d="M3028.451,2258.587C3075.343,2231.434 3089.151,2210.352 3154.006,2065.788C3163.765,2044.033 3167.937,2044.29 3162.82,2020.975C3161.771,2016.197 3195.776,1839.552 3143.85,1825.707C3092.737,1812.078 3089.476,1827.476 3011.58,1799.309C2967.959,1783.536 2933.829,1830.314 2917.683,1843.392C2914.984,1845.578 2895.723,1846.819 2925.357,1906.12C2941.089,1937.6 2967.631,1923.044 2973.306,1975.935C2980.084,2039.096 3017.402,2054.792 3038.105,2006.81C3040.103,2002.179 3051.018,1954.961 3086.307,1952.507C3120.457,1950.132 3153.222,2027.944 3130.52,2078.721C3116.853,2109.291 3121.29,2126.542 3055.006,2141.217C3042.096,2187.594 3025.905,2215.544 3021.866,2234.68C3018.254,2251.785 3013.66,2260.254 3031.162,2259.175" style="fill:rgb(130,100,71);stroke:black;stroke-width:12.5px;"/>
            </g>
            <path id="head2" serif:id="head" d="M2273.236,1915.124C2266.908,1966.201 2276.828,2078.814 2280.144,2102.446C2347.468,2582.346 2912.435,2420.039 3031.319,2233.483C3035.344,2227.166 3141.679,2158.575 3155.771,2055.246C3173.363,1926.263 3229.627,1783.282 3048.332,1806.229C3020.965,1809.692 3022.374,1769.3 2608.372,1691.689C2354.135,1644.029 2305.206,1657.073 2273.236,1915.124Z" style="fill:none;stroke:black;stroke-width:12.5px;"/>
            <g id="hat">
                <path d="M2692.718,1295.293C2750.09,1246.327 2766.032,1252.301 2814.487,1309.629C2805.139,1311.703 2750.856,1323.75 2696.016,1292.594" style="fill:rgb(157,129,177);stroke:black;stroke-width:12.5px;"/>
                <path id="line" d="M2066.152,1866.413C2077.68,1855.625 2107.119,1787.988 2324.648,1780.842" style="fill:rgb(249,221,177);stroke:black;stroke-width:12.5px;"/>
                <path id="side_panel" d="M3169.512,1846.252C3169.512,1846.252 3185.586,1637.226 3103.957,1489.611C3034.915,1364.759 2845.508,1305.479 2701.662,1292.333C2816.636,1339.308 2846.602,1347.945 2963.328,1614.827C2981.025,1655.288 2982.013,1761.219 2977.38,1771.884C2958.479,1815.396 3154.361,1856.654 3169.512,1846.252Z" style="fill:rgb(157,129,177);stroke:black;stroke-width:12.5px;"/>
                <path id="front-panel" serif:id="front panel" d="M2263.748,1724.378C2261.12,1709.427 2316.816,1325.401 2626.484,1291.424C2850.838,1266.808 2920.734,1494.895 2929.693,1524.131C2953.928,1603.217 2996.808,1651.871 2979.33,1780.891C2645.884,1772.003 2653.004,1677.498 2409.995,1708.879C2366.587,1714.484 2265.895,1736.593 2263.748,1724.378Z" style="fill:rgb(210,210,210);stroke:black;stroke-width:12.5px;"/>
                <path d="M2586.299,1649.467C2682.603,1628.57 2612.484,1509.479 2571.184,1502.099C2459.517,1482.144 2421.383,1663.847 2517.309,1631.977C2560.107,1617.758 2559.545,1645.666 2591.346,1652.492" style="fill:rgb(153,80,81);stroke:black;stroke-width:12.5px;"/>
                <g>
                    <path d="M2450.776,1530.463C2478.583,1530.912 2480.379,1450.654 2438.365,1475.42C2408.061,1493.284 2434.256,1527.966 2450.776,1530.463Z" style="fill:rgb(153,80,81);stroke:black;stroke-width:12.5px;"/>
                </g>
                <path d="M2511.004,1475.563C2553.307,1498.79 2547.014,1395.506 2502.51,1412.796C2487.508,1418.624 2468.7,1452.336 2511.004,1475.563Z" style="fill:rgb(153,80,81);stroke:black;stroke-width:12.5px;"/>
                <g transform="matrix(1,0,0,1,13,-12)">
                    <path d="M2580.493,1489.031C2629.99,1503.307 2607.485,1408.78 2579.753,1424.891C2579.003,1425.327 2530.996,1474.755 2580.493,1489.031Z" style="fill:rgb(153,80,81);stroke:black;stroke-width:12.5px;"/>
                </g>
                <path d="M2666.187,1534.168C2676.472,1531.758 2724.299,1460.794 2654.423,1473.422C2620.82,1479.494 2647.826,1538.469 2666.187,1534.168Z" style="fill:rgb(153,80,81);stroke:black;stroke-width:12.5px;"/>
                <path id="beak" d="M2263.632,1717.564C2263.632,1717.564 2243.171,1730.137 2192.875,1744.782C2183.093,1747.63 2083.625,1776.593 2074.8,1792.484C2056.718,1825.042 2027.012,1870.846 2061.404,1900.17C2084.078,1919.503 2137.382,1885.918 2249.061,1875.655C2285.858,1872.273 2267.81,1845.962 2284.284,1806.131C2285.129,1804.088 2292.385,1791.868 2293.114,1790.642C2295.056,1787.37 2296.267,1788.805 2390.547,1786.722C2461.071,1785.164 2458.533,1798.734 2572.566,1838.486C2610.823,1851.822 2739.716,1952.419 2901.1,1867.259C2924.329,1855.001 2922.913,1853.505 2941.97,1835.585C2947.848,1830.058 3006.556,1788.664 2969.741,1776.659C2871.037,1744.472 2898.365,1743.442 2807.186,1723.587C2698.397,1699.897 2475.254,1651.52 2375.603,1681.954C2272.099,1713.564 2272.893,1715.953 2263.632,1717.564Z" style="fill:rgb(157,129,177);stroke:black;stroke-width:12.5px;"/>
            </g>
        </g>
    </g>
</svg>
