<?xml version="1.0" encoding="UTF-8" standalone="no"?>
<!DOCTYPE svg PUBLIC "-//W3C//DTD SVG 1.1//EN" "http://www.w3.org/Graphics/SVG/1.1/DTD/svg11.dtd">
<svg width="100%" height="100%" viewBox="0 0 3462 2631" version="1.1" xmlns="http://www.w3.org/2000/svg" xmlns:xlink="http://www.w3.org/1999/xlink" xml:space="preserve" xmlns:serif="http://www.serif.com/" style="fill-rule:evenodd;clip-rule:evenodd;stroke-linecap:round;stroke-linejoin:round;stroke-miterlimit:1.5;">
    <g transform="matrix(1,0,0,1,-682.163472,-700.102682)">
        <g id="bottom" transform="matrix(1,0,0,1,-380,2)">
            <path d="M2593.346,2682.147C2594.775,2720.02 2627.413,2915.037 2909.232,2902.004C2905.615,2906.441 2884.338,2924.401 2897.43,2944.334C2944.206,3015.552 3184.955,3298.358 3220.886,3314.315C3294.094,3346.827 3422.519,3267.269 3425.262,3252.638C3429.856,3228.136 3350.516,3039.081 3324.619,2986.984C3302.892,2943.274 3028.502,2616.685 3003.544,2604.744C2916.496,2563.094 2789.717,2468.088 2689.817,2538.566C2586.416,2611.513 2591.995,2668.375 2593.346,2682.147Z" style="fill:rgb(252,234,177);"/>
            <clipPath id="_clip1">
                <path d="M2593.346,2682.147C2594.775,2720.02 2627.413,2915.037 2909.232,2902.004C2905.615,2906.441 2884.338,2924.401 2897.43,2944.334C2944.206,3015.552 3184.955,3298.358 3220.886,3314.315C3294.094,3346.827 3422.519,3267.269 3425.262,3252.638C3429.856,3228.136 3350.516,3039.081 3324.619,2986.984C3302.892,2943.274 3028.502,2616.685 3003.544,2604.744C2916.496,2563.094 2789.717,2468.088 2689.817,2538.566C2586.416,2611.513 2591.995,2668.375 2593.346,2682.147Z"/>
            </clipPath>
            <g clip-path="url(#_clip1)">
                <g transform="matrix(1,0,0,1,380,-2)">
                    <path d="M2529.017,2904.156C2546.357,2905.229 2566.639,2890.048 2569.408,2877.596" style="fill:rgb(187,231,211);fill-opacity:0.15;stroke:black;stroke-width:12.5px;"/>
                </g>
            </g>
            <path d="M2593.346,2682.147C2594.775,2720.02 2627.413,2915.037 2909.232,2902.004C2905.615,2906.441 2884.338,2924.401 2897.43,2944.334C2944.206,3015.552 3184.955,3298.358 3220.886,3314.315C3294.094,3346.827 3422.519,3267.269 3425.262,3252.638C3429.856,3228.136 3350.516,3039.081 3324.619,2986.984C3302.892,2943.274 3028.502,2616.685 3003.544,2604.744C2916.496,2563.094 2789.717,2468.088 2689.817,2538.566C2586.416,2611.513 2591.995,2668.375 2593.346,2682.147Z" style="fill:none;stroke:black;stroke-width:12.5px;"/>
        </g>
        <g id="middle" transform="matrix(1,0,0,1,-374,2)">
            <path d="M3213.486,2386.913C2742.861,2451.126 2887.617,2754.718 3040.725,2776.295C3044.347,2961.52 3146.173,2994.763 3300.504,3033.192C3374.745,3051.678 3383.165,3048.309 3508.541,3053.986C3652.669,3060.511 3658.046,3051.469 3797.96,3016.081C3880.313,2995.252 4456.524,2595.634 4007.071,2447.509C3931.52,2422.61 3395.21,2362.118 3213.486,2386.913Z" style="fill:rgb(251,189,164);"/>
            <clipPath id="_clip2">
                <path d="M3213.486,2386.913C2742.861,2451.126 2887.617,2754.718 3040.725,2776.295C3044.347,2961.52 3146.173,2994.763 3300.504,3033.192C3374.745,3051.678 3383.165,3048.309 3508.541,3053.986C3652.669,3060.511 3658.046,3051.469 3797.96,3016.081C3880.313,2995.252 4456.524,2595.634 4007.071,2447.509C3931.52,2422.61 3395.21,2362.118 3213.486,2386.913Z"/>
            </clipPath>
            <g clip-path="url(#_clip2)">
                <g transform="matrix(1,0,0,1,374,-2)">
                    <path d="M2666.726,2779.141C2819.484,2779.141 2911.317,2712.201 2951.768,2676.41" style="fill:rgb(187,231,211);fill-opacity:0.15;stroke:black;stroke-width:12.5px;"/>
                </g>
            </g>
            <path d="M3213.486,2386.913C2742.861,2451.126 2887.617,2754.718 3040.725,2776.295C3044.347,2961.52 3146.173,2994.763 3300.504,3033.192C3374.745,3051.678 3383.165,3048.309 3508.541,3053.986C3652.669,3060.511 3658.046,3051.469 3797.96,3016.081C3880.313,2995.252 4456.524,2595.634 4007.071,2447.509C3931.52,2422.61 3395.21,2362.118 3213.486,2386.913Z" style="fill:none;stroke:black;stroke-width:12.5px;"/>
        </g>
        <g id="big">
            <g transform="matrix(1,0,0,1,-326,-5)">
                <path d="M3323.879,2492.709C3323.879,2492.709 3236.221,2595.178 3051.384,2602.453C2913.079,2607.896 2722.627,2600.256 2722.627,2600.256C2722.627,2600.256 2488.899,2710.303 2379.071,2740.952C2229.729,2782.628 2095.926,2784.628 2005.674,2707.669C1952.672,2662.473 1728.073,2751.635 1632.106,2437.162C1516.138,2409.086 1297.16,2485.123 1102.119,2038.527C1082.256,1993.048 939.051,1798.004 1067.03,1364.638C1148.344,1089.289 1554.975,933.836 1554.975,933.836C1551.502,878.142 1851.869,672.682 2229.504,792.86C2300.51,755.966 2428.986,716.341 2515.183,712.167C2699.029,703.264 2841.468,770.298 2841.468,770.298C2841.468,770.298 2856.92,703.662 3239.709,751.343C3408.651,772.387 3438.952,897.287 3454.525,927.676C3449.645,916.684 3443.851,902.456 3441.97,891.464C3440.587,883.38 3705.117,848.08 3937.636,1108.47C3991.199,1168.454 4048.725,1221.553 4048.725,1221.553C4048.725,1221.553 4100.982,1248.729 4139.366,1274.618C4210.72,1322.744 4222.308,1505.344 4219.087,1527.233C4232.647,1529.504 4243.345,1517.665 4311.683,1578.428C4384.177,1642.885 4376.838,1666.01 4389.673,1761.615C4460.995,1839.35 4419.957,1922.921 4419.957,1922.921C4419.957,1922.921 4420.96,1958.048 4430.802,1981.302C4528.688,2212.572 4374.842,2337.413 4374.842,2337.413C4374.842,2337.413 4341.788,2415.904 4249.868,2470.449C4032.784,2599.265 3602.454,2478.659 3602.454,2478.659C3549.794,2525.747 3440.829,2520.325 3323.879,2492.709Z" style="fill:rgb(187,231,211);stroke:black;stroke-width:12.5px;"/>
            </g>
            <path d="M1594.279,2683.561C1743.635,2683.561 1746.203,2660.395 1751.823,2658.156C1765.167,2652.841 1794.768,2650.061 1801.445,2643.407C1817.104,2627.801 1890.265,2624.961 1934.693,2648.898" style="fill:rgb(187,231,211);fill-opacity:0.15;stroke:black;stroke-width:12.5px;"/>
            <path d="M4039.297,2343.872C4038.646,2334.454 4033.917,2266.118 3997.203,2233.627C3952.558,2194.118 3947.926,2203.328 3888.573,2193.632C3902.723,2192.642 3935.388,2197.701 3954.52,2170.747C3972.319,2145.671 3972.265,2103.125 4023.478,2095.281" style="fill:rgb(187,231,211);fill-opacity:0.15;stroke:black;stroke-width:12.5px;"/>
            <path d="M4095.603,1939.706C4096.212,1937.37 4092.08,1935.876 4075.422,1912.239C4059.082,1889.052 4010.056,1873.241 4003.77,1871.214" style="fill:rgb(187,231,211);fill-opacity:0.15;stroke:black;stroke-width:12.5px;"/>
            <path d="M4063.687,1752.298C4060.587,1790.673 4058.061,1789.568 4037.656,1822.519" style="fill:rgb(187,231,211);fill-opacity:0.15;stroke:black;stroke-width:12.5px;"/>
            <path d="M3893.087,1515.731C3892.014,1539.183 3888.905,1677.425 3709.877,1742.356" style="fill:rgb(187,231,211);fill-opacity:0.15;stroke:black;stroke-width:12.5px;"/>
            <path d="M3821.543,1679.054C3850.731,1840.654 3802.916,1895.334 3789.893,1907.81" style="fill:rgb(187,231,211);fill-opacity:0.15;stroke:black;stroke-width:12.5px;"/>
            <path d="M3643.67,1631.299C3661.682,1674.985 3816.284,1794.744 3592.828,1922.847C3593.636,1941.417 3597.6,2032.534 3451.29,2107.117" style="fill:rgb(187,231,211);fill-opacity:0.15;stroke:black;stroke-width:12.5px;"/>
            <path d="M3600.111,1935.239C3677.427,1929.404 3685.095,2065.985 3685.847,2079.381" style="fill:rgb(187,231,211);fill-opacity:0.15;stroke:black;stroke-width:12.5px;"/>
            <path d="M3709.877,1204.975C3744.328,1252.05 3740.472,1265.487 3736.921,1322.68" style="fill:rgb(187,231,211);fill-opacity:0.15;stroke:black;stroke-width:12.5px;"/>
            <path d="M3239.832,1311.284C3508.576,1308.76 3563.87,1329.411 3602.178,1470.482" style="fill:rgb(187,231,211);fill-opacity:0.15;stroke:black;stroke-width:12.5px;"/>
            <path d="M3223.506,1378.907C3224.735,1330.135 3246.077,1266.18 3164.933,1235.715" style="fill:rgb(187,231,211);fill-opacity:0.15;stroke:black;stroke-width:12.5px;"/>
            <path d="M3086.542,1175.731C2901.007,1085.637 2808.727,1043.843 2610.598,1159.964C2529.842,1207.294 2527.224,1287.935 2422.695,1302.516C2529.662,1318.759 2492.206,1495.107 2472.936,1522.127" style="fill:rgb(187,231,211);fill-opacity:0.15;stroke:black;stroke-width:12.5px;"/>
            <path d="M2696.475,1491.724C2825.264,1477.024 2759.972,1269.911 2869.847,1228.746" style="fill:rgb(187,231,211);fill-opacity:0.15;stroke:black;stroke-width:12.5px;"/>
            <path d="M2784.572,1399.646C2796.387,1369.506 2840.604,1370.786 2892.416,1368.908" style="fill:rgb(187,231,211);fill-opacity:0.15;stroke:black;stroke-width:12.5px;"/>
            <path d="M3058.136,991.633C3041.085,982.961 2919.59,921.171 2823.397,946.09C2685.839,981.724 2679.326,1070.83 2660.666,1138.289" style="fill:rgb(187,231,211);fill-opacity:0.15;stroke:black;stroke-width:12.5px;"/>
            <path d="M1607.218,2551.303C1688.462,2544.832 1708.664,2426.859 1726.487,2395.611C1774.783,2310.935 1953.341,2242.767 2136.218,2218.384C2157.011,2215.611 2283.915,2198.691 2381.962,2126.921C2482.153,2053.582 2459.611,2035.819 2516.161,1925.1" style="fill:rgb(187,231,211);fill-opacity:0.15;stroke:black;stroke-width:12.5px;"/>
            <path d="M2426.62,2092.771C2552.291,2092.771 2560.13,2088.374 2676.727,2042.455C2687.129,2038.359 2777.873,2016.398 2806.61,1992.876" style="fill:rgb(187,231,211);fill-opacity:0.15;stroke:black;stroke-width:12.5px;"/>
            <path d="M2420.494,2096.355C2419.685,2137.089 2414.332,2156.582 2453.608,2196.848C2475.457,2219.248 2472.787,2221.234 2499.653,2238.523" style="fill:rgb(187,231,211);fill-opacity:0.15;stroke:black;stroke-width:12.5px;"/>
            <path d="M2692.243,2068.557C3074.832,2090.995 3081.74,2068.434 3091.109,2037.832C3102.199,2001.613 3317.688,1866.058 3336.993,1773.011C3351.779,1701.742 3432.134,1672.336 3386.307,1513.357" style="fill:rgb(187,231,211);fill-opacity:0.15;stroke:black;stroke-width:12.5px;"/>
            <path d="M3349.534,1732.175C3417.873,1733.444 3431.918,1712.237 3467.532,1770.12" style="fill:rgb(187,231,211);fill-opacity:0.15;stroke:black;stroke-width:12.5px;"/>
            <path d="M3072.962,2064.457C3033.345,2149.179 3063.706,2185.901 3070.244,2194.39" style="fill:rgb(187,231,211);fill-opacity:0.15;stroke:black;stroke-width:12.5px;"/>
            <path d="M3162.307,1555.296C3158.329,1611.132 3173.171,1615.625 3139.068,1660.474" style="fill:rgb(187,231,211);fill-opacity:0.15;stroke:black;stroke-width:12.5px;"/>
            <path d="M3157.503,1631.941C3216.483,1592.209 3212.898,1585.268 3283.992,1571.818" style="fill:rgb(187,231,211);fill-opacity:0.15;stroke:black;stroke-width:12.5px;"/>
            <path d="M1904.01,2275.454C1785.725,2295.593 1697.41,2415.151 1545.852,2269.764" style="fill:rgb(187,231,211);fill-opacity:0.15;stroke:black;stroke-width:12.5px;"/>
            <path d="M2041.335,1690.504C2086.262,1689.443 2209.896,1843.171 2045.994,1891.988C1943.484,1922.52 1725.468,1903.62 1595.155,1992.417C1587.64,1997.537 1468.476,2113.533 1425.865,2124.571" style="fill:rgb(187,231,211);fill-opacity:0.15;stroke:black;stroke-width:12.5px;"/>
            <path d="M1720.081,1936.127C1637.63,1810.262 1598.166,1817.475 1615.068,1667.337C1623.851,1589.32 1657.948,1573.799 1591.949,1469.031" style="fill:rgb(187,231,211);fill-opacity:0.15;stroke:black;stroke-width:12.5px;"/>
            <path d="M1817.303,1710.389C1790.406,1532.253 1812.888,1532.325 1814.678,1502.276C1817.724,1451.133 1749.88,1382.7 1829.931,1207.863C1929.883,989.562 1982.027,1001.291 2127.297,993.769" style="fill:rgb(187,231,211);fill-opacity:0.15;stroke:black;stroke-width:12.5px;"/>
            <path d="M2127.776,1800.62C2162.049,1799.741 2251.69,1825.979 2398.845,1724.831C2457.42,1684.57 2432.306,1670.736 2436.731,1600.83" style="fill:rgb(187,231,211);fill-opacity:0.15;stroke:black;stroke-width:12.5px;"/>
            <path d="M2203.268,1803.057C2328.857,1803.057 2353.573,1812.8 2464.811,1757.688C2771.307,1605.837 2867.989,1725.484 2914.543,1783.608" style="fill:rgb(187,231,211);fill-opacity:0.15;stroke:black;stroke-width:12.5px;"/>
            <path d="M2766.86,1679.44C2843.181,1673.2 2837.554,1657.958 2877.918,1592.348C2903.141,1551.348 2947.771,1547.738 2954.889,1547.162" style="fill:rgb(187,231,211);fill-opacity:0.15;stroke:black;stroke-width:12.5px;"/>
            <path d="M2108.983,1544.213C2007.582,1242.11 2198.735,1163.233 2465.725,976.424" style="fill:rgb(187,231,211);fill-opacity:0.15;stroke:black;stroke-width:12.5px;"/>
            <path d="M2347.179,1051.55C2354.27,953.076 2326.982,945.01 2383.788,864.484C2391.391,853.707 2445.399,777.147 2515.468,765.298" style="fill:rgb(187,231,211);fill-opacity:0.15;stroke:black;stroke-width:12.5px;"/>
            <path d="M1969.562,1018C1970.225,999.488 1975.351,856.333 2109.219,833.314" style="fill:rgb(187,231,211);fill-opacity:0.15;stroke:black;stroke-width:12.5px;"/>
            <path d="M1925.479,813.797C1976.332,841.355 1977.899,821.682 2008.732,888.268" style="fill:rgb(187,231,211);fill-opacity:0.15;stroke:black;stroke-width:12.5px;"/>
            <path d="M1781.36,1391.486C1777.214,1385.392 1705.176,1339.244 1650.784,1331.227C1563.333,1318.339 1519.01,1356.386 1457.411,1386.677" style="fill:rgb(187,231,211);fill-opacity:0.15;stroke:black;stroke-width:12.5px;"/>
            <path d="M1596.974,1328.547C1562.442,1322.546 1536.109,1221.466 1556.865,1179.477" style="fill:rgb(187,231,211);fill-opacity:0.15;stroke:black;stroke-width:12.5px;"/>
            <path d="M1666.803,1073.308C1705.439,1103.653 1714.99,1077.516 1779.847,1107.016C1852.384,1140.009 1824.07,1188.391 1828.758,1210.436" style="fill:rgb(187,231,211);fill-opacity:0.15;stroke:black;stroke-width:12.5px;"/>
            <path d="M1435.891,1026.561C1597.937,928.69 1722.148,940.457 1821.154,939.389" style="fill:rgb(187,231,211);fill-opacity:0.15;stroke:black;stroke-width:12.5px;"/>
            <path d="M3200.605,2290.209C3154.181,2291.517 3025.854,2242.445 2931.271,2278.274C2822.375,2319.524 2757.308,2345.836 2647.543,2272.539C2583.336,2428.992 2333.677,2426.504 2193.117,2425.243C2088.91,2537.213 2080.874,2531.981 2003.68,2536.13" style="fill:rgb(187,231,211);fill-opacity:0.15;stroke:black;stroke-width:12.5px;"/>
            <path d="M2999.424,2488.475C2988.97,2486.481 2968.093,2478.356 2961.973,2471.155C2951.731,2459.104 2948.316,2452.013 2948.897,2442.316" style="fill:rgb(187,231,211);fill-opacity:0.15;stroke:black;stroke-width:12.5px;"/>
            <path d="M1294.562,2227.916C1256.938,2224.886 1087.357,2137.517 1066.33,2019.518" style="fill:rgb(187,231,211);fill-opacity:0.15;stroke:black;stroke-width:12.5px;"/>
            <path d="M785.144,2049.31C840.254,1737.74 1211.185,1898.882 1297.952,1907.941C1314.553,1909.674 1394.134,1917.982 1487.493,1995.144C1520.282,2022.244 1515.541,2040.792 1556.66,2029.987" style="fill:rgb(187,231,211);fill-opacity:0.15;stroke:black;stroke-width:12.5px;"/>
            <path d="M862.635,1900.069C795.631,1836.243 842.512,1773.15 697.983,1760.983" style="fill:rgb(187,231,211);fill-opacity:0.15;stroke:black;stroke-width:12.5px;"/>
            <path d="M952.766,1157.058C954.61,1192.844 1020.525,1390.7 918.033,1523.008C902.099,1543.577 817.366,1652.959 695.54,1760.227" style="fill:rgb(187,231,211);fill-opacity:0.15;stroke:black;stroke-width:12.5px;"/>
            <path d="M1053.909,1018.286C1229.515,1007.028 1280.28,1143.345 1201.573,1284.481C1127.091,1418.038 1330.325,1482.386 1148.267,1659.323" style="fill:rgb(187,231,211);fill-opacity:0.15;stroke:black;stroke-width:12.5px;"/>
            <path d="M1230.914,1217.695C1231.654,1216.276 1226.889,1210.972 1310.439,1154.472C1342.375,1132.875 1407.847,1137.502 1416.404,1138.107" style="fill:rgb(187,231,211);fill-opacity:0.15;stroke:black;stroke-width:12.5px;"/>
            <path d="M1377.729,1589.762C1405.183,1682.971 1371.703,1743.456 1369.373,1783.781" style="fill:rgb(187,231,211);fill-opacity:0.15;stroke:black;stroke-width:12.5px;"/>
            <path d="M1388.486,1661.089C1396.222,1623.215 1415.738,1632.533 1425.611,1596.179C1431.9,1573.021 1424.575,1548.136 1426.147,1524.19" style="fill:rgb(187,231,211);fill-opacity:0.15;stroke:black;stroke-width:12.5px;"/>
        </g>
    </g>
</svg>
