<?xml version="1.0" encoding="UTF-8" standalone="no"?>
<!DOCTYPE svg PUBLIC "-//W3C//DTD SVG 1.1//EN" "http://www.w3.org/Graphics/SVG/1.1/DTD/svg11.dtd">
<svg width="100%" height="100%" viewBox="0 0 4914 3981" version="1.1" xmlns="http://www.w3.org/2000/svg" xmlns:xlink="http://www.w3.org/1999/xlink" xml:space="preserve" xmlns:serif="http://www.serif.com/" style="fill-rule:evenodd;clip-rule:evenodd;stroke-linecap:round;stroke-linejoin:round;stroke-miterlimit:1.5;">
    <g id="Brain">
        <g id="bottom" transform="matrix(0.237131,0,0,0.237131,2069.084103,1202.395851)">
            <path d="M2593.346,2682.147C2594.775,2720.02 2627.413,2915.037 2909.232,2902.004C2905.615,2906.441 2884.338,2924.401 2897.43,2944.334C2944.206,3015.552 3184.955,3298.358 3220.886,3314.315C3294.094,3346.827 3422.519,3267.269 3425.262,3252.638C3429.856,3228.136 3350.516,3039.081 3324.619,2986.984C3302.892,2943.274 3028.502,2616.685 3003.544,2604.744C2916.496,2563.094 2789.717,2468.088 2689.817,2538.566C2586.416,2611.513 2591.995,2668.375 2593.346,2682.147Z" style="fill:rgb(252,234,177);"/>
            <clipPath id="_clip1">
                <path d="M2593.346,2682.147C2594.775,2720.02 2627.413,2915.037 2909.232,2902.004C2905.615,2906.441 2884.338,2924.401 2897.43,2944.334C2944.206,3015.552 3184.955,3298.358 3220.886,3314.315C3294.094,3346.827 3422.519,3267.269 3425.262,3252.638C3429.856,3228.136 3350.516,3039.081 3324.619,2986.984C3302.892,2943.274 3028.502,2616.685 3003.544,2604.744C2916.496,2563.094 2789.717,2468.088 2689.817,2538.566C2586.416,2611.513 2591.995,2668.375 2593.346,2682.147Z"/>
            </clipPath>
            <g clip-path="url(#_clip1)">
                <g transform="matrix(1,0,0,1,380,-2)">
                    <path d="M2529.017,2904.156C2546.357,2905.229 2566.639,2890.048 2569.408,2877.596" style="fill:rgb(187,231,211);fill-opacity:0.15;stroke:black;stroke-width:52.71px;"/>
                </g>
            </g>
            <path d="M2593.346,2682.147C2594.775,2720.02 2627.413,2915.037 2909.232,2902.004C2905.615,2906.441 2884.338,2924.401 2897.43,2944.334C2944.206,3015.552 3184.955,3298.358 3220.886,3314.315C3294.094,3346.827 3422.519,3267.269 3425.262,3252.638C3429.856,3228.136 3350.516,3039.081 3324.619,2986.984C3302.892,2943.274 3028.502,2616.685 3003.544,2604.744C2916.496,2563.094 2789.717,2468.088 2689.817,2538.566C2586.416,2611.513 2591.995,2668.375 2593.346,2682.147Z" style="fill:none;stroke:black;stroke-width:52.71px;"/>
        </g>
        <g id="middle" transform="matrix(0.237131,0,0,0.237131,2070.50689,1202.395851)">
            <path d="M3213.486,2386.913C2742.861,2451.126 2887.617,2754.718 3040.725,2776.295C3044.347,2961.52 3146.173,2994.763 3300.504,3033.192C3374.745,3051.678 3383.165,3048.309 3508.541,3053.986C3652.669,3060.511 3658.046,3051.469 3797.96,3016.081C3880.313,2995.252 4456.524,2595.634 4007.071,2447.509C3931.52,2422.61 3395.21,2362.118 3213.486,2386.913Z" style="fill:rgb(251,189,164);"/>
            <clipPath id="_clip2">
                <path d="M3213.486,2386.913C2742.861,2451.126 2887.617,2754.718 3040.725,2776.295C3044.347,2961.52 3146.173,2994.763 3300.504,3033.192C3374.745,3051.678 3383.165,3048.309 3508.541,3053.986C3652.669,3060.511 3658.046,3051.469 3797.96,3016.081C3880.313,2995.252 4456.524,2595.634 4007.071,2447.509C3931.52,2422.61 3395.21,2362.118 3213.486,2386.913Z"/>
            </clipPath>
            <g clip-path="url(#_clip2)">
                <g transform="matrix(1,0,0,1,374,-2)">
                    <path d="M2666.726,2779.141C2819.484,2779.141 2911.317,2712.201 2951.768,2676.41" style="fill:rgb(187,231,211);fill-opacity:0.15;stroke:black;stroke-width:52.71px;"/>
                </g>
            </g>
            <path d="M3213.486,2386.913C2742.861,2451.126 2887.617,2754.718 3040.725,2776.295C3044.347,2961.52 3146.173,2994.763 3300.504,3033.192C3374.745,3051.678 3383.165,3048.309 3508.541,3053.986C3652.669,3060.511 3658.046,3051.469 3797.96,3016.081C3880.313,2995.252 4456.524,2595.634 4007.071,2447.509C3931.52,2422.61 3395.21,2362.118 3213.486,2386.913Z" style="fill:none;stroke:black;stroke-width:52.71px;"/>
        </g>
        <g id="big" transform="matrix(0.237131,0,0,0.237131,2159.193919,1201.921589)">
            <g transform="matrix(1,0,0,1,-326,-5)">
                <path d="M3323.879,2492.709C3323.879,2492.709 3236.221,2595.178 3051.384,2602.453C2913.079,2607.896 2722.627,2600.256 2722.627,2600.256C2722.627,2600.256 2488.899,2710.303 2379.071,2740.952C2229.729,2782.628 2095.926,2784.628 2005.674,2707.669C1952.672,2662.473 1728.073,2751.635 1632.106,2437.162C1516.138,2409.086 1297.16,2485.123 1102.119,2038.527C1082.256,1993.048 939.051,1798.004 1067.03,1364.638C1148.344,1089.289 1554.975,933.836 1554.975,933.836C1551.502,878.142 1851.869,672.682 2229.504,792.86C2300.51,755.966 2428.986,716.341 2515.183,712.167C2699.029,703.264 2841.468,770.298 2841.468,770.298C2841.468,770.298 2856.92,703.662 3239.709,751.343C3408.651,772.387 3438.952,897.287 3454.525,927.676C3449.645,916.684 3443.851,902.456 3441.97,891.464C3440.587,883.38 3705.117,848.08 3937.636,1108.47C3991.199,1168.454 4048.725,1221.553 4048.725,1221.553C4048.725,1221.553 4100.982,1248.729 4139.366,1274.618C4210.72,1322.744 4222.308,1505.344 4219.087,1527.233C4232.647,1529.504 4243.345,1517.665 4311.683,1578.428C4384.177,1642.885 4376.838,1666.01 4389.673,1761.615C4460.995,1839.35 4419.957,1922.921 4419.957,1922.921C4419.957,1922.921 4420.96,1958.048 4430.802,1981.302C4528.688,2212.572 4374.842,2337.413 4374.842,2337.413C4374.842,2337.413 4341.788,2415.904 4249.868,2470.449C4032.784,2599.265 3602.454,2478.659 3602.454,2478.659C3549.794,2525.747 3440.829,2520.325 3323.879,2492.709Z" style="fill:rgb(187,231,211);stroke:black;stroke-width:52.71px;"/>
            </g>
            <g id="brain-regions">
                <g transform="matrix(4.217077,0,0,4.217077,-9105.486203,-5068.595437)">
                    <path d="M2962.44,1523.693C2962.002,1568.86 2966.946,1610.981 2945.919,1631.328C2934.782,1642.105 2921.954,1656.698 2911.289,1667.092C2890.314,1687.536 2895.033,1678.56 2887.889,1706.874C2881.986,1730.269 2932.055,1728.393 2932.325,1727.508C2932.483,1726.991 2945.065,1729.485 2960.888,1723.553C2964.452,1722.216 2962.883,1720.087 2997.66,1693.357C3022.926,1673.937 3015.112,1668.69 3019.498,1658.552C3025.297,1645.151 3037.207,1648.127 3037.804,1637.331C3039.238,1611.378 3026.087,1591.85 3025.835,1591.209C3024.667,1588.233 3026.121,1587.767 3012.666,1553.478C3007.865,1541.243 3005.017,1526.029 2995.356,1523.124C2971.151,1515.845 2969.775,1516.505 2962.44,1523.693Z" style="fill:rgb(251,189,164);"/>
                </g>
                <g transform="matrix(4.217077,0,0,4.217077,-9105.486203,-5068.595437)">
                    <path d="M2657.216,1398.424C2682.558,1398.424 2716.905,1400.906 2719.192,1404.811C2727.067,1418.261 2716.484,1418.933 2716.042,1446.851C2709.97,1451.258 2711.49,1452.788 2705.116,1456.631C2705.1,1456.64 2688.542,1471.03 2686.857,1473.486C2675.78,1489.634 2725.193,1498.942 2741.026,1515.474C2751.055,1525.945 2749.057,1528.577 2748.632,1552.878C2748.499,1560.473 2737.224,1581.903 2736.717,1592.214C2735.782,1611.254 2701.875,1630.082 2683.86,1627.41C2663.91,1624.452 2663.743,1623.256 2650.979,1607.721C2650.439,1607.064 2648.822,1605.095 2642.055,1601.94C2641.915,1598.112 2636.974,1589.456 2633.444,1586.169C2609.607,1563.978 2616.815,1560.979 2599.081,1549.227C2588.759,1542.387 2573.038,1529.037 2610.131,1469.126C2624.37,1446.128 2623.361,1437.046 2628.329,1429.441C2644.833,1404.178 2654.141,1399.853 2657.216,1398.424Z" style="fill:rgb(251,189,164);"/>
                </g>
                <g transform="matrix(4.217077,0,0,4.217077,-9105.486203,-5068.595437)">
                    <path d="M2577.498,1531.634C2574.433,1530.901 2536.941,1499.631 2509.194,1526.073C2498.47,1536.293 2511.011,1546.751 2525.247,1550.28C2559.587,1558.794 2509.141,1671.447 2608.783,1655.28C2651.551,1648.341 2677.787,1646.326 2652.239,1611.04C2629.657,1579.85 2617.679,1536.765 2577.498,1531.634Z" style="fill:rgb(251,189,164);"/>
                </g>
                <g transform="matrix(4.217077,0,0,4.217077,-9105.486203,-5068.595437)">
                    <path d="M2910.913,1494.908C2892.738,1485.715 2891.541,1479.676 2873.206,1476.734C2844.726,1472.165 2804.689,1443.447 2784.475,1475.901C2781.755,1480.267 2747.265,1505.147 2747.036,1512.331C2746.203,1538.443 2750.872,1559.225 2742.778,1571.498C2730.706,1589.804 2743.477,1598.841 2729.285,1615.88C2708.004,1641.431 2752.649,1608.496 2764.627,1606.14C2797.02,1599.769 2791.256,1598.844 2819.168,1598.194C2827.976,1597.989 2827.876,1594.546 2852.411,1572.106C2856.028,1568.797 2896.464,1567.2 2901.702,1571.424C2911.356,1579.207 2924.635,1552.464 2926.837,1536.433C2930.293,1511.266 2912.187,1496.321 2910.913,1494.908Z" style="fill:rgb(251,189,164);"/>
                </g>
                <g transform="matrix(4.217077,0,0,4.217077,-9105.486203,-5068.595437)">
                    <path d="M2541.764,1386.585C2538.784,1386.846 2518.409,1389.053 2494.3,1396.08C2474.157,1401.952 2459.78,1417.562 2453.175,1426.311C2450.242,1430.197 2448.067,1427.637 2439.085,1433.016C2432.265,1437.099 2426.522,1439.187 2423.415,1443.232C2441.137,1458.821 2444.432,1458.264 2445.227,1481.544L2448.962,1482.746C2449.804,1508.063 2443.426,1514.81 2467.074,1523.307C2506.484,1537.468 2507.056,1527.878 2532.407,1520.883C2557.863,1513.859 2557.756,1518.866 2582.571,1526.722C2596.002,1469.803 2626.135,1442.367 2633.827,1424.68C2637.034,1417.306 2647.081,1411.626 2633.246,1406.211C2623.847,1402.532 2596.436,1381.795 2541.764,1386.585Z" style="fill:rgb(251,189,164);"/>
                </g>
                <g transform="matrix(4.217077,0,0,4.217077,-9105.486203,-5068.595437)">
                    <path d="M2415.147,1447.972C2394.501,1451.537 2380.62,1470.81 2367.77,1481.895C2342.263,1503.897 2335.931,1545.501 2333.104,1557.009C2327.197,1581.049 2329.276,1601.476 2328.365,1604.548C2330.137,1622.942 2332.379,1631.482 2333.834,1646.405C2334.207,1650.231 2341.003,1669.168 2343.353,1670.515C2347.997,1673.177 2362.255,1644.129 2382.941,1642.299C2398.535,1640.919 2397.575,1638.683 2413.449,1638.152C2434.984,1586.679 2461.591,1564.234 2444.214,1525.418C2434.408,1503.515 2471.777,1451.341 2415.147,1447.972Z" style="fill:rgb(251,189,164);"/>
                </g>
                <g transform="matrix(4.217077,0,0,4.217077,-9105.486203,-5068.595437)">
                    <path d="M2848.667,1622.965C2828.871,1617.783 2832.187,1598.849 2780.426,1606.236C2753.305,1610.107 2737.483,1624.922 2722.906,1625.586C2688.741,1627.143 2682.27,1613.684 2645.088,1650.87C2619.689,1641.339 2509.823,1679.784 2516.981,1694.819C2518.888,1675.196 2509.794,1671.297 2491.285,1665.227C2452.643,1652.554 2455.905,1657.381 2417.671,1642.577C2363.094,1621.444 2333.933,1655.856 2351.579,1687.877C2363.653,1709.786 2372.571,1731.317 2397.736,1752.179C2409.176,1761.664 2424.578,1767.944 2441.068,1769.656C2449.176,1770.498 2464.321,1772.565 2472.996,1772.498C2498.235,1772.304 2513.762,1719.93 2542.88,1755.901C2543.851,1757.1 2608.545,1755.965 2611.033,1752.98C2635.832,1723.232 2710.135,1718.77 2711.4,1718.265C2735.371,1708.699 2730.432,1703.038 2744.399,1681.392C2745.818,1690.512 2743.791,1693.543 2752.768,1693.866C2755.857,1693.977 2796.474,1693.085 2820.483,1675.636C2844.475,1658.2 2846.429,1652.705 2848.667,1622.965Z" style="fill:rgb(251,189,164);"/>
                </g>
            </g>
            <path d="M1594.279,2683.561C1743.635,2683.561 1746.203,2660.395 1751.823,2658.156C1765.167,2652.841 1794.768,2650.061 1801.445,2643.407C1817.104,2627.801 1890.265,2624.961 1934.693,2648.898" style="fill:rgb(187,231,211);fill-opacity:0.15;stroke:black;stroke-width:52.71px;"/>
            <path d="M4039.297,2343.872C4038.646,2334.454 4033.917,2266.118 3997.203,2233.627C3952.558,2194.118 3947.926,2203.328 3888.573,2193.632C3902.723,2192.642 3935.388,2197.701 3954.52,2170.747C3972.319,2145.671 3972.265,2103.125 4023.478,2095.281" style="fill:rgb(187,231,211);fill-opacity:0.15;stroke:black;stroke-width:52.71px;"/>
            <path d="M4095.603,1939.706C4096.212,1937.37 4092.08,1935.876 4075.422,1912.239C4059.082,1889.052 4010.056,1873.241 4003.77,1871.214" style="fill:rgb(187,231,211);fill-opacity:0.15;stroke:black;stroke-width:52.71px;"/>
            <path d="M4063.687,1752.298C4060.587,1790.673 4058.061,1789.568 4037.656,1822.519" style="fill:rgb(187,231,211);fill-opacity:0.15;stroke:black;stroke-width:52.71px;"/>
            <path d="M3893.087,1515.731C3892.014,1539.183 3888.905,1677.425 3709.877,1742.356" style="fill:rgb(187,231,211);fill-opacity:0.15;stroke:black;stroke-width:52.71px;"/>
            <path d="M3821.543,1679.054C3850.731,1840.654 3802.916,1895.334 3789.893,1907.81" style="fill:rgb(187,231,211);fill-opacity:0.15;stroke:black;stroke-width:52.71px;"/>
            <path d="M3643.67,1631.299C3661.682,1674.985 3816.284,1794.744 3592.828,1922.847C3593.636,1941.417 3597.6,2032.534 3451.29,2107.117" style="fill:rgb(187,231,211);fill-opacity:0.15;stroke:black;stroke-width:52.71px;"/>
            <path d="M3600.111,1935.239C3677.427,1929.404 3685.095,2065.985 3685.847,2079.381" style="fill:rgb(187,231,211);fill-opacity:0.15;stroke:black;stroke-width:52.71px;"/>
            <path d="M3709.877,1204.975C3744.328,1252.05 3740.472,1265.487 3736.921,1322.68" style="fill:rgb(187,231,211);fill-opacity:0.15;stroke:black;stroke-width:52.71px;"/>
            <path d="M3239.832,1311.284C3508.576,1308.76 3563.87,1329.411 3602.178,1470.482" style="fill:rgb(187,231,211);fill-opacity:0.15;stroke:black;stroke-width:52.71px;"/>
            <path d="M3223.506,1378.907C3224.735,1330.135 3246.077,1266.18 3164.933,1235.715" style="fill:rgb(187,231,211);fill-opacity:0.15;stroke:black;stroke-width:52.71px;"/>
            <path d="M3086.542,1175.731C2901.007,1085.637 2808.727,1043.843 2610.598,1159.964C2529.842,1207.294 2527.224,1287.935 2422.695,1302.516C2529.662,1318.759 2492.206,1495.107 2472.936,1522.127" style="fill:rgb(187,231,211);fill-opacity:0.15;stroke:black;stroke-width:52.71px;"/>
            <path d="M2696.475,1491.724C2825.264,1477.024 2759.972,1269.911 2869.847,1228.746" style="fill:rgb(187,231,211);fill-opacity:0.15;stroke:black;stroke-width:52.71px;"/>
            <path d="M2784.572,1399.646C2796.387,1369.506 2840.604,1370.786 2892.416,1368.908" style="fill:rgb(187,231,211);fill-opacity:0.15;stroke:black;stroke-width:52.71px;"/>
            <path d="M3058.136,991.633C3041.085,982.961 2919.59,921.171 2823.397,946.09C2685.839,981.724 2679.326,1070.83 2660.666,1138.289" style="fill:rgb(187,231,211);fill-opacity:0.15;stroke:black;stroke-width:52.71px;"/>
            <path d="M1607.218,2551.303C1688.462,2544.832 1708.664,2426.859 1726.487,2395.611C1774.783,2310.935 1953.341,2242.767 2136.218,2218.384C2157.011,2215.611 2283.915,2198.691 2381.962,2126.921C2482.153,2053.582 2459.611,2035.819 2516.161,1925.1" style="fill:rgb(187,231,211);fill-opacity:0.15;stroke:black;stroke-width:52.71px;"/>
            <path d="M2426.62,2092.771C2552.291,2092.771 2560.13,2088.374 2676.727,2042.455C2687.129,2038.359 2777.873,2016.398 2806.61,1992.876" style="fill:rgb(187,231,211);fill-opacity:0.15;stroke:black;stroke-width:52.71px;"/>
            <path d="M2420.494,2096.355C2419.685,2137.089 2414.332,2156.582 2453.608,2196.848C2475.457,2219.248 2472.787,2221.234 2499.653,2238.523" style="fill:rgb(187,231,211);fill-opacity:0.15;stroke:black;stroke-width:52.71px;"/>
            <path d="M2692.243,2068.557C3074.832,2090.995 3081.74,2068.434 3091.109,2037.832C3102.199,2001.613 3317.688,1866.058 3336.993,1773.011C3351.779,1701.742 3432.134,1672.336 3386.307,1513.357" style="fill:rgb(187,231,211);fill-opacity:0.15;stroke:black;stroke-width:52.71px;"/>
            <path d="M3349.534,1732.175C3417.873,1733.444 3431.918,1712.237 3467.532,1770.12" style="fill:rgb(187,231,211);fill-opacity:0.15;stroke:black;stroke-width:52.71px;"/>
            <path d="M3072.962,2064.457C3033.345,2149.179 3063.706,2185.901 3070.244,2194.39" style="fill:rgb(187,231,211);fill-opacity:0.15;stroke:black;stroke-width:52.71px;"/>
            <path d="M3162.307,1555.296C3158.329,1611.132 3173.171,1615.625 3139.068,1660.474" style="fill:rgb(187,231,211);fill-opacity:0.15;stroke:black;stroke-width:52.71px;"/>
            <path d="M3157.503,1631.941C3216.483,1592.209 3212.898,1585.268 3283.992,1571.818" style="fill:rgb(187,231,211);fill-opacity:0.15;stroke:black;stroke-width:52.71px;"/>
            <path d="M1904.01,2275.454C1785.725,2295.593 1697.41,2415.151 1545.852,2269.764" style="fill:rgb(187,231,211);fill-opacity:0.15;stroke:black;stroke-width:52.71px;"/>
            <path d="M2041.335,1690.504C2086.262,1689.443 2209.896,1843.171 2045.994,1891.988C1943.484,1922.52 1725.468,1903.62 1595.155,1992.417C1587.64,1997.537 1468.476,2113.533 1425.865,2124.571" style="fill:rgb(187,231,211);fill-opacity:0.15;stroke:black;stroke-width:52.71px;"/>
            <path d="M1720.081,1936.127C1637.63,1810.262 1598.166,1817.475 1615.068,1667.337C1623.851,1589.32 1657.948,1573.799 1591.949,1469.031" style="fill:rgb(187,231,211);fill-opacity:0.15;stroke:black;stroke-width:52.71px;"/>
            <path d="M1817.303,1710.389C1790.406,1532.253 1812.888,1532.325 1814.678,1502.276C1817.724,1451.133 1749.88,1382.7 1829.931,1207.863C1929.883,989.562 1982.027,1001.291 2127.297,993.769" style="fill:rgb(187,231,211);fill-opacity:0.15;stroke:black;stroke-width:52.71px;"/>
            <path d="M2127.776,1800.62C2162.049,1799.741 2251.69,1825.979 2398.845,1724.831C2457.42,1684.57 2432.306,1670.736 2436.731,1600.83" style="fill:rgb(187,231,211);fill-opacity:0.15;stroke:black;stroke-width:52.71px;"/>
            <path d="M2203.268,1803.057C2328.857,1803.057 2353.573,1812.8 2464.811,1757.688C2771.307,1605.837 2867.989,1725.484 2914.543,1783.608" style="fill:rgb(187,231,211);fill-opacity:0.15;stroke:black;stroke-width:52.71px;"/>
            <path d="M2766.86,1679.44C2843.181,1673.2 2837.554,1657.958 2877.918,1592.348C2903.141,1551.348 2947.771,1547.738 2954.889,1547.162" style="fill:rgb(187,231,211);fill-opacity:0.15;stroke:black;stroke-width:52.71px;"/>
            <path d="M2108.983,1544.213C2007.582,1242.11 2198.735,1163.233 2465.725,976.424" style="fill:rgb(187,231,211);fill-opacity:0.15;stroke:black;stroke-width:52.71px;"/>
            <path d="M2347.179,1051.55C2354.27,953.076 2326.982,945.01 2383.788,864.484C2391.391,853.707 2445.399,777.147 2515.468,765.298" style="fill:rgb(187,231,211);fill-opacity:0.15;stroke:black;stroke-width:52.71px;"/>
            <path d="M1969.562,1018C1970.225,999.488 1975.351,856.333 2109.219,833.314" style="fill:rgb(187,231,211);fill-opacity:0.15;stroke:black;stroke-width:52.71px;"/>
            <path d="M1925.479,813.797C1976.332,841.355 1977.899,821.682 2008.732,888.268" style="fill:rgb(187,231,211);fill-opacity:0.15;stroke:black;stroke-width:52.71px;"/>
            <path d="M1781.36,1391.486C1777.214,1385.392 1705.176,1339.244 1650.784,1331.227C1563.333,1318.339 1519.01,1356.386 1457.411,1386.677" style="fill:rgb(187,231,211);fill-opacity:0.15;stroke:black;stroke-width:52.71px;"/>
            <path d="M1596.974,1328.547C1562.442,1322.546 1536.109,1221.466 1556.865,1179.477" style="fill:rgb(187,231,211);fill-opacity:0.15;stroke:black;stroke-width:52.71px;"/>
            <path d="M1666.803,1073.308C1705.439,1103.653 1714.99,1077.516 1779.847,1107.016C1852.384,1140.009 1824.07,1188.391 1828.758,1210.436" style="fill:rgb(187,231,211);fill-opacity:0.15;stroke:black;stroke-width:52.71px;"/>
            <path d="M1435.891,1026.561C1597.937,928.69 1722.148,940.457 1821.154,939.389" style="fill:rgb(187,231,211);fill-opacity:0.15;stroke:black;stroke-width:52.71px;"/>
            <path d="M3200.605,2290.209C3154.181,2291.517 3025.854,2242.445 2931.271,2278.274C2822.375,2319.524 2757.308,2345.836 2647.543,2272.539C2583.336,2428.992 2333.677,2426.504 2193.117,2425.243C2088.91,2537.213 2080.874,2531.981 2003.68,2536.13" style="fill:rgb(187,231,211);fill-opacity:0.15;stroke:black;stroke-width:52.71px;"/>
            <path d="M2999.424,2488.475C2988.97,2486.481 2968.093,2478.356 2961.973,2471.155C2951.731,2459.104 2948.316,2452.013 2948.897,2442.316" style="fill:rgb(187,231,211);fill-opacity:0.15;stroke:black;stroke-width:52.71px;"/>
            <path d="M1294.562,2227.916C1256.938,2224.886 1087.357,2137.517 1066.33,2019.518" style="fill:rgb(187,231,211);fill-opacity:0.15;stroke:black;stroke-width:52.71px;"/>
            <path d="M785.144,2049.31C840.254,1737.74 1211.185,1898.882 1297.952,1907.941C1314.553,1909.674 1394.134,1917.982 1487.493,1995.144C1520.282,2022.244 1515.541,2040.792 1556.66,2029.987" style="fill:rgb(187,231,211);fill-opacity:0.15;stroke:black;stroke-width:52.71px;"/>
            <path d="M862.635,1900.069C795.631,1836.243 842.512,1773.15 697.983,1760.983" style="fill:rgb(187,231,211);fill-opacity:0.15;stroke:black;stroke-width:52.71px;"/>
            <path d="M952.766,1157.058C954.61,1192.844 1020.525,1390.7 918.033,1523.008C902.099,1543.577 817.366,1652.959 695.54,1760.227" style="fill:rgb(187,231,211);fill-opacity:0.15;stroke:black;stroke-width:52.71px;"/>
            <path d="M1053.909,1018.286C1229.515,1007.028 1280.28,1143.345 1201.573,1284.481C1127.091,1418.038 1330.325,1482.386 1148.267,1659.323" style="fill:rgb(187,231,211);fill-opacity:0.15;stroke:black;stroke-width:52.71px;"/>
            <path d="M1230.914,1217.695C1231.654,1216.276 1226.889,1210.972 1310.439,1154.472C1342.375,1132.875 1407.847,1137.502 1416.404,1138.107" style="fill:rgb(187,231,211);fill-opacity:0.15;stroke:black;stroke-width:52.71px;"/>
            <path d="M1377.729,1589.762C1405.183,1682.971 1371.703,1743.456 1369.373,1783.781" style="fill:rgb(187,231,211);fill-opacity:0.15;stroke:black;stroke-width:52.71px;"/>
            <path d="M1388.486,1661.089C1396.222,1623.215 1415.738,1632.533 1425.611,1596.179C1431.9,1573.021 1424.575,1548.136 1426.147,1524.19" style="fill:rgb(187,231,211);fill-opacity:0.15;stroke:black;stroke-width:52.71px;"/>
        </g>
    </g>
</svg>
